# xmcd
#
# Track frame offsets:
#	150
#	12405
#	27677
#	44895
#	59097
#	72470
#	88107
#	98265
#	113235
#	126515
#	153360
#	164190
#	171960
#	180400
#	195137
#	211737
#	225852
#	243145
#
# Disc length: 3391 seconds
#
# Revision: 0
# Processed by: cddbd v1.5.2PL0 Copyright (c) Steve Scherf et al.
# Submitted via: EasyCDDAExtractor 16.0.8.2
#
DISCID=f60d3d12
DTITLE=Συλλογικός δίσκος - Ανθολογία ελλ. τραγ. Θ-Τα γιορτινά Α
DYEAR=1900
DGENRE=Ποικίλη
TTITLE0=Ταλιούρης Γιώργος - Στολίδι είσαι μόνη σου [Σ.Χρυσύνη-Σπ.Κεφαλόπουλου]
TTITLE1=Παπαδάκης Μάνος - Μιά δεκάρα [Β. Βασιλειάδη-Πυθαγόρα]
TTITLE2=Παπαδάκης Μάνος - Θα τα κάψω τα λεφτά μου [Β. Βασιλειάδη-Πυθαγόρα]
TTITLE3=Παπαδάκης Μάνος - Η φωτιά [Γ. Μητσάκης]
TTITLE4=Ταλιούρης Γιώργος - Μοδίστρες και κομμώτριες [Λ. Μπουρνέλη-Δ. Ζάχου]
TTITLE5=Χατζηαντωνίου Γιώργος - Δεν θέλω την συμπόνοια κανενός [Στρ. Ατταλίδη]
TTITLE6=Ταλιούρης Γιώργος - Εσύ είσ' αριστοκράτισσα [Λ.Μπουρνέλη-Χ.Βασιλειάδη]
TTITLE7=Χατζηαντωνίου Γιώργος - Τώρα κλαις, γιατί κλαις [Απ. Καλδάρα]
TTITLE8=Παπαδάκης Μάνος - Ένας αητός [Γ. Μητσάκη]
TTITLE9=Βασιλάκη Μαρίνα - Αλεξανδρινή φελάχα [παραδοσιακό]
TTITLE10=Άνευ ερμηνευτού - Αιγιώτισσα [παραδ., οργανικό]
TTITLE11=Άνευ ερμηνευτού - Λεμονάκι [παραδ., οργανικό]
TTITLE12=Άνευ ερμηνευτού - Σαμιώτισσα [παραδ., οργανικό]
TTITLE13=Βασιλάκη Μαρίνα - Σάλα, σάλα [παραδοσιακό]
TTITLE14=Βασιλάκη Μαρίνα - Μήλο μου και μανταρίνι [παραδοσιακό]
TTITLE15=Βασιλάκη Μαρίνα - Στη γειτονιά σου κάθομαι [παραδοσιακό]
TTITLE16=Άνευ ερμηνευτού - Τί 'θελα και σ' αγαπούσα [παραδ., οργανικό]
TTITLE17=Άνευ ερμηνευτού - Μακεδονία ξακουστή [παραδ., οργανικό]
EXTD=
EXTT0=
EXTT1=
EXTT2=
EXTT3=
EXTT4=
EXTT5=
EXTT6=
EXTT7=
EXTT8=
EXTT9=
EXTT10=
EXTT11=
EXTT12=
EXTT13=
EXTT14=
EXTT15=
EXTT16=
EXTT17=
PLAYORDER=
